<svg id="Capa_1" enable-background="new 0 0 512 512" height="512" viewBox="0 0 512 512" width="512" xmlns="http://www.w3.org/2000/svg"><g><g><path d="m293.478 64.036h35.603v87.092h-35.603z" fill="#eceaec"/></g><g><g><g><path d="m388.272 262.831-172.634 27.569-145.437-27.57-8.641-104.589c0-11.379 11.942-20.604 23.321-20.604h21.169l39.961 59.042 39.961-59.042h181.696c11.379 0 20.604 9.225 20.604 20.604z" fill="#3a8cd6"/></g></g></g><g><g><g><path d="m90.804 137.638h-27.197c-11.379 0-20.604 9.224-20.604 20.604v104.588l27.197 4.343v-108.932c.001-11.379 9.225-20.603 20.604-20.603z" fill="#0280ce"/></g></g></g><g><path d="m74.527 37.875c17.41 0 10.193 14.114 10.193 31.524l21.331 31.4v124.284h79.921v-155.685c0-17.41-14.114-31.524-31.524-31.524h-79.921z" fill="#eceaec"/></g><g><path d="m74.527 37.875c-17.41 0-31.524 14.114-31.524 31.524v31.4h63.047v-31.4c.001-17.411-14.113-31.524-31.523-31.524z" fill="#dad8db"/></g><g><g><g><path d="m378.272 75.749h-118.712c-5.523 0-12.72-7.226-12.72-12.749l.24-44.16c0-5.523 8.157-18.84 13.68-18.84h117.512c5.523 0 10 4.477 10 10v55.749c0 5.523-4.477 10-10 10z" fill="#e5646e"/></g></g></g><g><path d="m254.455 65.447v-55.145c0-5.69 4.612-10.302 10.302-10.302h-19.656c-5.69 0-10.302 4.612-10.302 10.302v55.145c0 5.69 4.612 10.302 10.302 10.302h19.656c-5.69 0-10.302-4.612-10.302-10.302z" fill="#db4655"/></g><g><g><path d="m341.282 225.082h-81.722c-5.523 0-15.84-3.679-15.84-9.202l.48-27.6c0-5.523 9.837-12.894 15.36-12.894h81.722c5.523 0 10 4.477 10 10v29.696c0 5.523-4.477 10-10 10z" fill="#eceaec"/></g></g><g><path d="m253.294 214.78v-29.092c0-5.689 4.612-10.302 10.302-10.302h-18.495c-5.69 0-10.302 4.612-10.302 10.302v29.092c0 5.69 4.612 10.302 10.302 10.302h18.495c-5.69 0-10.302-4.612-10.302-10.302z" fill="#dad8db"/></g><g><path d="m154.28 108.524h-19.532c-4.267 0-7.726-3.459-7.726-7.726 0-4.268 3.459-7.726 7.726-7.726h19.532c4.267 0 7.726 3.459 7.726 7.726.001 4.267-3.459 7.726-7.726 7.726z" fill="#dad8db"/></g><g><path d="m154.28 145.364h-19.532c-4.267 0-7.726-3.459-7.726-7.726 0-4.268 3.459-7.726 7.726-7.726h19.532c4.267 0 7.726 3.459 7.726 7.726.001 4.267-3.459 7.726-7.726 7.726z" fill="#dad8db"/></g><g><path d="m154.28 182.204h-19.532c-4.267 0-7.726-3.459-7.726-7.726 0-4.268 3.459-7.726 7.726-7.726h19.532c4.267 0 7.726 3.459 7.726 7.726.001 4.267-3.459 7.726-7.726 7.726z" fill="#dad8db"/></g><g><path d="m359.917 45.601h-96.763c-4.268 0-7.726-3.459-7.726-7.726s3.459-7.726 7.726-7.726h96.763c4.268 0 7.726 3.459 7.726 7.726s-3.459 7.726-7.726 7.726z" fill="#eceaec"/></g><g><path d="m202.012 232.809h-112.001c-4.267 0-7.726-3.459-7.726-7.726 0-4.268 3.459-7.726 7.726-7.726h112.001c4.267 0 7.726 3.459 7.726 7.726s-3.459 7.726-7.726 7.726z" fill="#0280ce"/></g><g><path d="m388.272 262.831h-318.071l-50.881 91.769 7.753 15.152 191.552 18.729 129.975-21.376 41.533-99.762z" fill="#80b4fb"/></g><g><g><g><path d="m410.672 512h-367.172c-11.379 0-21.78-9.225-21.78-20.604l5.353-124.291h303.172l37.795 58.295 63.236 39.873v26.123c0 11.379-9.225 20.604-20.604 20.604z" fill="#3a8cd6"/></g></g></g><g><g><g><path d="m27.073 491.396v-124.291h-27.073v124.292c0 11.378 9.225 20.603 20.604 20.603h27.073c-11.379 0-20.604-9.225-20.604-20.604z" fill="#0280ce"/></g></g></g><g><path d="m43.004 262.83-43.004 104.275h27.197l43.004-104.275z" fill="#61a2f9"/></g><g><path d="m330.091 361.475c0 1.889.054 3.766.154 5.63l18.925 17.915 9.656-2.107 17.989-15.808 23.139-75.949-9.821-23.813c-35.43 16.548-60.042 52.516-60.042 94.132z" fill="#61a2f9"/></g><g><g><g><path d="m330.245 367.105c.685 12.762 3.689 24.917 8.592 36.056h46.081c5.69 0 10.302 4.612 10.302 10.302v44.357c11.193 4.512 23.343 7.134 36.056 7.453v-98.168z" fill="#0280ce"/></g></g></g><g><path d="m57.72 465.642-3.347-52.179c0-5.69 8.458-10.302 14.147-10.302h270.317l28.191 28.665 28.191 25.994v7.822c0 5.69-4.612 10.302-10.302 10.302h-314.716c-5.69 0-12.481-4.613-12.481-10.302z" fill="#eceaec"/></g><g><path d="m395.219 457.82v-44.357c0-5.689-4.612-10.302-10.302-10.302h-46.081c10.905 24.776 31.213 44.511 56.383 54.659z" fill="#dad8db"/></g><g><path d="m62.388 465.642v-52.179c0-5.689 4.612-10.302 10.302-10.302h-26.332c-5.69 0-10.302 4.612-10.302 10.302v52.179c0 5.69 4.612 10.302 10.302 10.302h26.331c-5.689 0-10.301-4.613-10.301-10.302z" fill="#dad8db"/></g><g><path d="m223.055 447.279h-14.835c-4.267 0-7.726-3.459-7.726-7.726s3.459-7.726 7.726-7.726h14.835c4.267 0 7.726 3.459 7.726 7.726s-3.459 7.726-7.726 7.726z" fill="#766e6e"/></g><g><path d="m127.696 304.398h-15.762c-4.267 0-7.726-3.459-7.726-7.726s3.459-7.726 7.726-7.726h15.762c4.267 0 7.726 3.459 7.726 7.726s-3.459 7.726-7.726 7.726z" fill="#4591e5"/></g><g><path d="m191.578 304.398h-15.762c-4.267 0-7.726-3.459-7.726-7.726s3.459-7.726 7.726-7.726h15.762c4.267 0 7.726 3.459 7.726 7.726s-3.459 7.726-7.726 7.726z" fill="#4591e5"/></g><g><path d="m255.459 304.398h-15.762c-4.267 0-7.726-3.459-7.726-7.726s3.459-7.726 7.726-7.726h15.762c4.267 0 7.726 3.459 7.726 7.726s-3.459 7.726-7.726 7.726z" fill="#4591e5"/></g><g><path d="m319.341 304.398h-15.762c-4.268 0-7.726-3.459-7.726-7.726s3.459-7.726 7.726-7.726h15.762c4.268 0 7.726 3.459 7.726 7.726s-3.458 7.726-7.726 7.726z" fill="#4591e5"/></g><g><path d="m127.696 338.585h-15.762c-4.267 0-7.726-3.459-7.726-7.726s3.459-7.726 7.726-7.726h15.762c4.267 0 7.726 3.459 7.726 7.726s-3.459 7.726-7.726 7.726z" fill="#4591e5"/></g><g><path d="m191.578 338.585h-15.762c-4.267 0-7.726-3.459-7.726-7.726s3.459-7.726 7.726-7.726h15.762c4.267 0 7.726 3.459 7.726 7.726s-3.459 7.726-7.726 7.726z" fill="#4591e5"/></g><g><path d="m255.459 338.585h-15.762c-4.267 0-7.726-3.459-7.726-7.726s3.459-7.726 7.726-7.726h15.762c4.267 0 7.726 3.459 7.726 7.726s-3.459 7.726-7.726 7.726z" fill="#4591e5"/></g><g><path d="m319.341 338.585h-15.762c-4.268 0-7.726-3.459-7.726-7.726s3.459-7.726 7.726-7.726h15.762c4.268 0 7.726 3.459 7.726 7.726s-3.458 7.726-7.726 7.726z" fill="#4591e5"/></g><g><path d="m512 361.475c0 39.796-29.774 72.638-68.261 77.466-3.215.403-6.492-.791-9.816-.791-43.121 0-69.123-33.554-69.123-76.675s26.002-76.955 69.123-76.955c3.429 0 6.807-.901 10.12-.473 38.339 4.962 67.957 37.736 67.957 77.428z" fill="#ffc269"/></g><g><path d="m376.614 361.475c0-39.598 29.485-72.288 67.693-77.369-3.4-.452-6.861-.708-10.384-.708-43.121 0-78.077 34.956-78.077 78.077s34.956 78.077 78.077 78.077c3.523 0 6.985-.256 10.384-.708-38.209-5.081-67.693-37.771-67.693-77.369z" fill="#ffa95f"/></g><path d="m433.923 353.73c-.192 0-.383.007-.572.021-5.253-.298-9.436-4.666-9.436-9.993 0-5.518 4.49-10.008 10.008-10.008s10.008 4.49 10.008 10.008c0 4.268 3.459 7.726 7.726 7.726s7.726-3.459 7.726-7.726c0-11.346-7.462-20.979-17.734-24.259v-9.379c0-4.268-3.459-7.726-7.726-7.726s-7.726 3.459-7.726 7.726v9.379c-10.273 3.279-17.734 12.912-17.734 24.259 0 14.039 11.422 25.462 25.461 25.462.192 0 .383-.007.572-.021 5.253.298 9.436 4.665 9.436 9.992 0 5.518-4.49 10.008-10.008 10.008s-10.008-4.49-10.008-10.008c0-4.268-3.459-7.726-7.726-7.726s-7.726 3.459-7.726 7.726c0 11.346 7.462 20.979 17.734 24.259v9.38c0 4.268 3.459 7.726 7.726 7.726s7.726-3.459 7.726-7.726v-9.38c10.273-3.279 17.734-12.912 17.734-24.259-.001-14.039-11.422-25.461-25.461-25.461z" fill="#eceaec"/></g></svg>