<svg id="Capa_1" enable-background="new 0 0 512 512" height="512" viewBox="0 0 512 512" width="512" xmlns="http://www.w3.org/2000/svg"><g><g><path clip-rule="evenodd" d="m416.8 504.5c16.9 0 30.7-13.8 30.7-30.6v-274.7c-10.7 2-372.9 1.9-383.1 0v274.7c0 16.9 13.8 30.6 30.7 30.6z" fill="#f9f7f8" fill-rule="evenodd"/></g><g><path clip-rule="evenodd" d="m417.5 267.8v222.9c0 5-1.2 9.7-3.4 13.9h2.6c16.9 0 30.7-13.8 30.7-30.6v-201.7-73.2c-.2 0-.5.1-1 .1-3.4.3-13.8.5-29 .7z" fill="#dddaec" fill-rule="evenodd"/></g><g><path clip-rule="evenodd" d="m83 150 100.2 10-12.6-57.3h-61c-14.6 0-26.6 12-26.6 26.6z" fill="#ffd772" fill-rule="evenodd"/></g><g><path clip-rule="evenodd" d="m341.4 102.7-12.6 57.3 100.2-10v-20.7c0-14.6-12-26.6-26.6-26.6z" fill="#ffd772" fill-rule="evenodd"/></g><g><path clip-rule="evenodd" d="m301.8 227.5c0 25.1 20.6 45.7 45.7 45.7 25.2 0 45.8-20.5 45.8-45.7 0 25.1 20.6 45.7 45.8 45.7 2.9 0 5.7-.3 8.5-.8 21.1-4 37.2-22.6 37.2-44.9v-43.7c0-25.5-20.5-33.9-37.2-33.9h-18.6-90.2c-16.5 28.7-47.4 48-82.8 48s-66.4-19.3-82.8-48h-90.2-18.5c-16.8 0-37.2 8.3-37.2 33.9v43.7c0 22.2 16.1 40.9 37.2 44.9 2.7.5 5.6.8 8.5.8 25.2 0 45.8-20.5 45.8-45.7 0 25.1 20.6 45.7 45.8 45.7s45.8-20.5 45.8-45.7c0 25.1 20.6 45.7 45.8 45.7s45.6-20.6 45.6-45.7z" fill="#eb5468" fill-rule="evenodd"/></g><g><path clip-rule="evenodd" d="m173.1 150c16.5 28.7 47.4 48 82.9 48s66.4-19.3 82.8-48c8-13.9 12.6-30.1 12.6-47.3 0-52.6-42.7-95.2-95.4-95.2s-95.4 42.6-95.4 95.2c0 17.2 4.5 33.3 12.5 47.3z" fill="#f9f7f8" fill-rule="evenodd"/></g><g><path clip-rule="evenodd" d="m419.2 151c14 2.9 27.4 12.2 27.4 32.9v28.6 15c0 18.3-10.9 34.2-26.6 41.5 5.8 2.7 12.3 4.2 19.1 4.2 2.9 0 5.7-.3 8.5-.8 21.1-4 37.2-22.6 37.2-44.9v-43.7c0-25.5-20.5-33.9-37.2-33.9h-18.6z" fill="#e5384f" fill-rule="evenodd"/></g><g><path clip-rule="evenodd" d="m253.3 7.5c41.2 10.5 71.7 47.9 71.7 92.3 0 17.2-4.6 33.4-12.6 47.3-16 27.9-45.8 46.9-80.1 47.9 7.6 1.9 15.5 3 23.7 3 31.3 0 59.1-15.1 76.5-38.3 2.3-3.1 4.4-6.3 6.3-9.6 8-13.9 12.6-30.1 12.6-47.3 0-52.6-42.7-95.2-95.4-95.2-.9-.1-1.8-.1-2.7-.1z" fill="#dddaec" fill-rule="evenodd"/></g><g><path clip-rule="evenodd" d="m383.6 312.7h-71.1c-11 0-20.1 9-20.1 20v171.7h111.3v-171.7c-.1-11-9.1-20-20.1-20z" fill="#b1e4f9" fill-rule="evenodd"/></g><g><path clip-rule="evenodd" d="m246.2 441.7v-110.1c0-11-9.1-20.1-20.1-20.1h-103c-11.1 0-20.1 9-20.1 20.1v110.1c0 11 9 20.1 20.1 20.1h102.9c11.1-.1 20.2-9.1 20.2-20.1z" fill="#b1e4f9" fill-rule="evenodd"/></g><g><path clip-rule="evenodd" d="m292.4 331.6h50.1 11 7c11 0 20.1 9 20.1 20v72.6 80.3h23v-171.7c0-11-9-20-20.1-20h-71.1c-10.6-.1-19.4 8.3-20 18.8z" fill="#75cef8" fill-rule="evenodd"/></g><g><path clip-rule="evenodd" d="m154.7 401.9 39.9-30.5-16.3-21.3c-8.4-11-24.2-13.1-35.2-4.7s-13.1 24.2-4.7 35.1z" fill="#eb5468" fill-rule="evenodd"/></g><g><path clip-rule="evenodd" d="m194.6 371.4-39.9 30.5 16.3 21.3c8.4 10.9 24.2 13 35.2 4.7 11-8.4 13.1-24.2 4.7-35.1z" fill="#f9f7f8" fill-rule="evenodd"/></g><g><path clip-rule="evenodd" d="m162.2 360.2 16.3 21.3 1 1.3 15-11.4-16.3-21.3c-8.4-11-24.2-13.1-35.2-4.7-.8.6-1.5 1.2-2.2 1.9 9.6-2.6 15.1 4.6 21.4 12.9z" fill="#e5384f" fill-rule="evenodd"/></g><g><path clip-rule="evenodd" d="m194.6 371.4-15 11.4 15.3 20c7.8 10.2 11.8 20.5 2.8 29.2 3-.8 5.9-2.2 8.5-4.2 11-8.4 13.1-24.2 4.7-35.1z" fill="#dddaec" fill-rule="evenodd"/></g><g><path clip-rule="evenodd" d="m226.1 351.7v110.1c11.1 0 20.1-9 20.1-20.1v-110.1c0-11-9.1-20.1-20.1-20.1h-103c-11.1 0-20.1 9-20.1 20.1h99.1c11.1 0 24 9 24 20.1z" fill="#75cef8" fill-rule="evenodd"/></g><g><path clip-rule="evenodd" d="m237.7 120.9v28.6c0 1.5 1.2 2.7 2.7 2.7h31.1c1.5 0 2.7-1.2 2.7-2.7v-28.6h28.7c1.5 0 2.7-1.2 2.7-2.7v-31c0-1.5-1.2-2.7-2.7-2.7h-28.7v-28.7c0-1.5-1.2-2.7-2.7-2.7h-31.1c-1.5 0-2.7 1.2-2.7 2.7v28.6h-28.7c-1.5 0-2.7 1.2-2.7 2.7v31.1c0 1.5 1.2 2.7 2.7 2.7z" fill="#eb5468" fill-rule="evenodd"/></g><g><path clip-rule="evenodd" d="m302.9 84.5h-28.7v-28.7c0-1.5-1.2-2.7-2.7-2.7h-23.6c9.3 14.7 14.8 32.2 14.8 50.8 0 17.2-4.6 33.4-12.6 47.3-.2.3-.4.7-.6 1h22c1.5 0 2.7-1.2 2.7-2.7v-28.6h28.7c1.5 0 2.7-1.2 2.7-2.7v-31c.1-1.5-1.2-2.7-2.7-2.7z" fill="#e5384f" fill-rule="evenodd"/></g><g><path clip-rule="evenodd" d="m403.6 373.1h78.7v131.4h-78.7z" fill="#ffd772" fill-rule="evenodd"/></g><g><path clip-rule="evenodd" d="m79.5 410.9c24 0 43.7 19.6 43.7 43.6v50h-87.5v-50c0-24 19.7-43.6 43.8-43.6z" fill="#a7e9a6" fill-rule="evenodd"/></g><g><path clip-rule="evenodd" d="m95.2 453.9v50h-59.5v.6h66 21.4v-49.7-.3c0-11.9-4.8-22.7-12.7-30.6-7.9-8-18.9-13-31-13-4.1 0-8 .6-11.8 1.6-.4.1-.8.2-1.2.4.4.1.8.3 1.2.5 16.2 6.4 27.6 22.2 27.6 40.5z" fill="#7fdbae" fill-rule="evenodd"/></g><g><path clip-rule="evenodd" d="m462.7 373.1h19.6v131.4h-19.6z" fill="#fbba58" fill-rule="evenodd"/></g><g><path clip-rule="evenodd" d="m359.9 102.7c14.7 0 26.6 11.9 26.6 26.6v20.7h42.5v-20.7c0-14.6-12-26.6-26.6-26.6z" fill="#fbba58" fill-rule="evenodd"/></g></g><g><g><path d="m322.6 414.3h-.2c-4.1 0-7.5-3.4-7.5-7.5s3.4-7.5 7.5-7.5h.2c4.1 0 7.5 3.4 7.5 7.5s-3.3 7.5-7.5 7.5z"/></g><g><path d="m450.6 414.3h-15.2c-4.1 0-7.5-3.4-7.5-7.5s3.4-7.5 7.5-7.5h15.2c4.1 0 7.5 3.4 7.5 7.5s-3.4 7.5-7.5 7.5z"/></g><g><path d="m450.6 447.3h-15.2c-4.1 0-7.5-3.4-7.5-7.5s3.4-7.5 7.5-7.5h15.2c4.1 0 7.5 3.4 7.5 7.5s-3.4 7.5-7.5 7.5z"/></g><g><path d="m450.6 480.3h-15.2c-4.1 0-7.5-3.4-7.5-7.5s3.4-7.5 7.5-7.5h15.2c4.1 0 7.5 3.4 7.5 7.5s-3.4 7.5-7.5 7.5z"/></g><g><path d="m209 128.4h21.2v21.1c0 5.6 4.6 10.2 10.2 10.2h31.1c5.6 0 10.2-4.6 10.2-10.2v-21.1h21.2c5.6 0 10.2-4.6 10.2-10.2v-31c0-5.6-4.6-10.2-10.2-10.2h-21.2v-21.2c0-5.6-4.6-10.2-10.2-10.2h-31.1c-5.6 0-10.2 4.6-10.2 10.2v21.2h-21.2c-5.6 0-10.2 4.6-10.2 10.2v31.1c0 5.5 4.6 10.1 10.2 10.1zm4.8-36.4h23.9c4.1 0 7.5-3.4 7.5-7.5v-23.8h21.5v23.8c0 4.1 3.4 7.5 7.5 7.5h23.9v21.4h-23.9c-4.1 0-7.5 3.4-7.5 7.5v23.9h-21.5v-23.9c0-4.1-3.4-7.5-7.5-7.5h-23.9z"/><path d="m184.2 345.5c-10.9-14.3-31.4-17-45.7-6.1-6.9 5.3-11.3 12.9-12.5 21.6-1.2 8.6 1.1 17.2 6.4 24.1l32.7 42.6c6.4 8.4 16.1 12.8 25.9 12.8 6.9 0 13.9-2.2 19.7-6.7 6.9-5.3 11.4-12.9 12.5-21.6 1.2-8.6-1.1-17.2-6.4-24.1-5.2-6.8-32.6-42.6-32.6-42.6zm-28.1 45.9-11.8-15.4c-2.8-3.7-4-8.3-3.4-13s3-8.8 6.7-11.6c3.2-2.4 7-3.6 10.7-3.6 5.3 0 10.6 2.4 14 6.9 0 0 11.4 14.8 11.7 15.3zm52.3 18.8c-.6 4.7-3 8.8-6.7 11.6-7.7 5.9-18.8 4.4-24.7-3.3l-11.7-15.3 28-21.3c4 5.2 8 10.4 11.8 15.4 2.7 3.7 3.9 8.3 3.3 12.9z"/><path d="m482.4 365.6h-27.4v-27.6c0-4.1-3.4-7.5-7.5-7.5s-7.5 3.4-7.5 7.5v27.6h-28.9v-32.8c0-15.2-12.4-27.5-27.6-27.5h-71.1c-15.2 0-27.6 12.4-27.6 27.5v164.2h-154.1v-27.8h95.4c15.2 0 27.6-12.4 27.6-27.6v-110c0-15.2-12.4-27.6-27.6-27.6h-103c-15.2 0-27.6 12.4-27.6 27.6v74.4c-5.1-1.7-10.5-2.6-16.1-2.6-2.5 0-5.1.2-7.5.6v-42.4c0-4.1-3.4-7.5-7.5-7.5s-7.5 3.4-7.5 7.5v47c-17 8.3-28.7 25.8-28.7 45.9v50c0 4.1 3.4 7.5 7.5 7.5h78.7 8.7 359.2c4.1 0 7.5-3.4 7.5-7.5v-131.4c.1-4.1-3.3-7.5-7.4-7.5zm-366.7 131.4h-1.2-71.3v-42.5c0-19.9 16.3-36.1 36.2-36.1 20 0 36.2 16.2 36.2 36.1zm-5.2-83.1v-82.3c0-6.9 5.7-12.6 12.6-12.6h102.9c7 0 12.6 5.6 12.6 12.6v110.1c0 6.9-5.7 12.6-12.6 12.6h-95.4c0-16.5-7.9-31.1-20.1-40.4zm285.6 83.1h-96.3v-164.2c0-6.9 5.6-12.5 12.6-12.5h71.1c6.9 0 12.6 5.6 12.6 12.5zm78.8 0h-63.7v-116.4h63.7z"/><path d="m447.5 142.5h-11v-13.2c0-18.8-15.3-34.1-34.1-34.1h-43.7c-3.9-53.1-48.5-95.2-102.7-95.2s-98.8 42.1-102.7 95.2h-43.7c-18.8 0-34.1 15.3-34.1 34.1v13.2h-11c-22.3 0-44.7 12.8-44.7 41.3v43.7c0 23.7 15.7 43.9 37.2 50.7v49.9c0 4.1 3.4 7.5 7.5 7.5s7.5-3.4 7.5-7.5v-47.5h1c19.4 0 36.4-10.4 45.7-26 9.3 15.5 26.3 26 45.8 26 19.4 0 36.5-10.4 45.8-26 9.3 15.6 26.3 26 45.8 26 19.4 0 36.5-10.4 45.8-26 9.3 15.5 26.3 26 45.7 26s36.5-10.4 45.8-26c9.3 15.6 26.3 26 45.8 26h1v23.9c0 4.1 3.4 7.5 7.5 7.5s7.5-3.4 7.5-7.5v-26.3c21.6-6.8 37.2-27 37.2-50.7v-43.7c-.1-28.5-22.6-41.3-44.9-41.3zm-88.8-32.3h43.7c10.6 0 19.1 8.6 19.1 19.1v13.2h-70.6c4.2-10.1 6.9-20.9 7.8-32.3zm-102.7-95.2c48.5 0 87.9 39.3 87.9 87.7s-39.4 87.7-87.9 87.7-87.9-39.4-87.9-87.7 39.4-87.7 87.9-87.7zm-165.5 114.3c0-10.5 8.6-19.1 19.1-19.1h43.7c.8 11.4 3.5 22.2 7.7 32.3h-70.5zm386.8 98.2c0 21-17.2 38.2-38.3 38.2s-38.3-17.1-38.3-38.2c0-4.1-3.4-7.5-7.5-7.5s-7.5 3.4-7.5 7.5c0 21-17.2 38.2-38.3 38.2s-38.2-17.1-38.2-38.2c0-4.1-3.4-7.5-7.5-7.5s-7.5 3.4-7.5 7.5c0 21-17.2 38.2-38.3 38.2s-38.3-17.1-38.3-38.2c0-4.1-3.4-7.5-7.5-7.5s-7.5 3.4-7.5 7.5c0 21-17.2 38.2-38.3 38.2s-38.3-17.1-38.3-38.2c0-4.1-3.4-7.5-7.5-7.5s-7.5 3.4-7.5 7.5c0 21-17.2 38.2-38.3 38.2s-38.2-17.1-38.2-38.2v-43.7c0-24.4 22.8-26.4 29.7-26.4h104.8c18.3 28.8 50.4 48 87 48s68.8-19.2 87-48h104.5c7 0 29.7 1.9 29.7 26.4z"/></g></g></svg>