<?xml version="1.0" encoding="iso-8859-1"?>
<!-- Generator: Adobe Illustrator 19.0.0, SVG Export Plug-In . SVG Version: 6.00 Build 0)  -->
<svg xmlns="http://www.w3.org/2000/svg" xmlns:xlink="http://www.w3.org/1999/xlink" version="1.1" id="Layer_1" x="0px" y="0px" viewBox="0 0 490 490" style="enable-background:new 0 0 490 490;" xml:space="preserve" width="512" height="512">
<g>
	<g>
		<path style="fill:#F0CD00;" d="M490,245c0,135.31-109.69,245-245,245c-71.33,0-135.54-30.48-180.31-79.13    c-11.76-12.77-22.17-26.8-31.03-41.85C12.27,332.64,0,290.25,0,245C0,109.69,109.69,0,245,0c45.26,0,87.65,12.27,124.02,33.67    c15.05,8.85,29.07,19.26,41.84,31.03C459.51,109.45,490,173.67,490,245z"/>
		<path style="fill:#FFDE50;" d="M490,245c0,132.26-104.79,240.04-235.88,244.83C123.03,485.04,18.24,377.26,18.24,245    S123.03,4.96,254.12,0.17C385.21,4.96,490,112.74,490,245z"/>
		<path style="fill:#FFEA94;" d="M410.86,64.7L64.69,410.87c-11.76-12.77-22.17-26.8-31.03-41.85L369.02,33.67    C384.07,42.52,398.09,52.93,410.86,64.7z"/>
		<path style="fill:#FFEA94;" d="M473.1,155.43L155.42,473.11c-22.49-8.84-43.36-20.91-62.03-35.64L437.47,93.39    C452.2,112.06,464.27,132.93,473.1,155.43z"/>
		<path style="fill:#FAA300;" d="M435.38,245c0,105.14-85.24,190.38-190.38,190.38c-36.62,0-70.82-10.34-99.85-28.26    c-12.65-7.8-24.31-17.05-34.77-27.51c-7.69-7.68-14.73-16.03-21.02-24.94c-8.66-12.27-15.91-25.61-21.5-39.78    c-8.28-20.95-12.94-43.73-13.22-67.55c-0.02-0.78-0.02-1.56-0.02-2.34c0-105.14,85.23-190.38,190.38-190.38    c0.78,0,1.57,0,2.35,0.02c23.82,0.28,46.59,4.95,67.54,13.22c14.17,5.6,27.51,12.84,39.78,21.5c8.91,6.3,17.25,13.33,24.94,21.02    c10.46,10.45,19.71,22.12,27.51,34.77C425.04,174.18,435.38,208.38,435.38,245z"/>
		<path style="fill:#FFBD00;" d="M379.61,110.38L110.38,379.61c-7.69-7.68-14.73-16.03-21.02-24.94    c-8.66-12.27-15.91-25.61-21.5-39.78c-8.28-20.95-12.94-43.73-13.22-67.55c-0.02-0.78-0.02-1.56-0.02-2.34    c0-105.14,85.23-190.38,190.38-190.38c0.78,0,1.57,0,2.35,0.02c23.82,0.28,46.59,4.95,67.54,13.22    c14.17,5.6,27.51,12.84,39.78,21.5C363.58,95.66,371.92,102.69,379.61,110.38z"/>
		<path style="fill:#F68E00;" d="M435.375,245c0,105.14-85.24,190.38-190.38,190.38c-3.61,0-7.19-0.1-10.75-0.3    c100.14-5.57,179.62-88.55,179.62-190.08s-79.48-184.51-179.62-190.08c3.56-0.2,7.14-0.3,10.75-0.3    C350.135,54.62,435.375,139.86,435.375,245z"/>
	</g>
	<g>
		<path style="fill:#F68E00;" d="M310.447,226.038h-36.639c-11.046,0-20,8.954-20,20v73.278v48.166c0,11.046,8.954,20,20,20    s20-8.954,20-20v-28.166h16.639c31.23,0,56.639-25.408,56.639-56.639C367.085,251.446,341.677,226.038,310.447,226.038z     M310.447,299.315h-16.639v-33.278h16.639c9.175,0,16.639,7.464,16.639,16.639S319.621,299.315,310.447,299.315z"/>
		<path style="fill:#F68E00;" d="M247.205,187.023c0-40.399-32.868-73.267-73.268-73.267h-43.266c-11.046,0-20,8.954-20,20v106.534    v79.025c0,11.046,8.954,20,20,20s20-8.954,20-20v-59.025h17.089l13.51,63.206c2.008,9.393,10.306,15.823,19.539,15.823    c1.385,0,2.791-0.145,4.2-0.446c10.802-2.309,17.687-12.937,15.378-23.739l-13.413-62.748    C230.818,240.286,247.205,215.54,247.205,187.023z M173.938,220.291h-23.266v-66.534h23.266c18.344,0,33.268,14.923,33.268,33.267    C207.205,205.367,192.282,220.291,173.938,220.291z"/>
	</g>
	<g>
		<path style="fill:#FFEA94;" d="M335.448,226.038H298.81c-11.046,0-20,8.954-20,20v73.278v48.166c0,11.046,8.954,20,20,20    s20-8.954,20-20v-28.166h16.639c31.23,0,56.639-25.408,56.639-56.639C392.087,251.446,366.679,226.038,335.448,226.038z     M335.448,299.315H318.81v-33.278h16.639c9.175,0,16.639,7.464,16.639,16.639S344.623,299.315,335.448,299.315z"/>
		<path style="fill:#FFEA94;" d="M272.207,187.023c0-40.399-32.868-73.267-73.268-73.267h-43.266c-11.046,0-20,8.954-20,20v106.534    v79.025c0,11.046,8.954,20,20,20s20-8.954,20-20v-59.025h17.089l13.51,63.206c2.008,9.393,10.306,15.823,19.539,15.823    c1.385,0,2.791-0.145,4.2-0.446c10.802-2.309,17.687-12.937,15.378-23.739l-13.413-62.748    C255.82,240.286,272.207,215.54,272.207,187.023z M198.939,220.291h-23.266v-66.534h23.266c18.344,0,33.268,14.923,33.268,33.267    C232.207,205.367,217.283,220.291,198.939,220.291z"/>
	</g>
</g>















</svg>
