<svg id="Layer_5" enable-background="new 0 0 64 64" height="512" viewBox="0 0 64 64" width="512" xmlns="http://www.w3.org/2000/svg"><g><g><g><path d="m60 46v12c0 1.1-.9 2-2 2h-12c-1.1 0-2-.9-2-2v-12c0-1.1.9-2 2-2h2 2v4h4v-4h4c1.1 0 2 .9 2 2z" fill="#d3a06c"/></g><g><path d="m62 42c0 1.1-.9 2-2 2h-2-4-4-2c-1.1 0-2-.9-2-2v-12c0-1.1.9-2 2-2h4v4h4v-4h2 2c1.1 0 2 .9 2 2z" fill="#d3a06c"/></g><g><path d="m46 30v12c0 1.1-.9 2-2 2h-4v-6c0-1.1-.9-2-2-2h-8v-6c0-1.1.9-2 2-2h2 2v4h4v-4h4c1.1 0 2 .9 2 2z" fill="#d3a06c"/></g><g><path d="m60 4v22c0 1.1-.9 2-2 2h-2-4-4-4-4-4-2c-1.1 0-2-.9-2-2v-22c0-1.1.9-2 2-2h8v6h8v-6h8c1.1 0 2 .9 2 2z" fill="#d3a06c"/></g><g><path d="m42 2h8v6h-8z" fill="#b27946"/></g><g><path d="m36 28h4v4h-4z" fill="#b27946"/></g><g><path d="m52 28h4v4h-4z" fill="#b27946"/></g><g><path d="m50 44h4v4h-4z" fill="#b27946"/></g><g><path d="m19.5 10c2.49 0 4.5 2.01 4.5 4.5 0 1.24-.5 2.37-1.32 3.18-.81.82-1.94 1.32-3.18 1.32h-1.28-.22-5c-.83 0-1.58.34-2.12.88s-.88 1.29-.88 2.12v2c-.55 0-1.05.22-1.41.59-.37.36-.59.86-.59 1.41v.17c0 .53.21 1.04.59 1.42l1.41 1.41v5l-1.17-.58c-4.18-2.1-6.83-6.38-6.83-11.06 0-3.42 1.38-6.5 3.62-8.74s5.32-3.62 8.74-3.62z" fill="#656d78"/></g><g><path d="m20 56.57v5.43h-18v-14.79c0 1.52.33 3 .95 4.35s1.53 2.57 2.68 3.56l.45.37c.44.38.91.72 1.41 1.02 1.61.97 3.46 1.49 5.36 1.49h1.34c1.2 0 2.39-.21 3.51-.61z" fill="#4fc1e9"/></g><g><path d="m12 52-4.51 4.51c-.5-.3-.97-.64-1.41-1.02l-.45-.37c-1.15-.99-2.06-2.21-2.68-3.56s-.95-2.83-.95-4.35c0-4.34 2.69-8.22 6.75-9.74l1.25-.47c2.38 1.43 4.4 3.3 6 5.46.67.91 1.26 1.88 1.77 2.89.73 1.43 1.29 2.95 1.67 4.52v.01z" fill="#4fc1e9"/></g><g><path d="m28.34 44.55c-.84.28-1.51.95-1.79 1.79l-.55 1.66v-5-3h2 10c.55 0 1.05-.22 1.41-.59.37-.36.59-.86.59-1.41v6 16c0 1.1-.9 2-2 2h-12v-7.58l7.92-2.84c1.23-.34 2.08-1.46 2.08-2.74 0-.78-.32-1.5-.83-2.01s-1.23-.83-2.01-.83h-1.16l-.76-.76c-.76-.76-1.88-1.03-2.9-.69z" fill="#ffeaa7"/></g><g><path d="m38 36c1.1 0 2 .9 2 2 0 .55-.22 1.05-.59 1.41-.36.37-.86.59-1.41.59h-10v-4h2z" fill="#e6e9ed"/></g><g><path d="m26 43v5l-6.56 1.87c-.38-1.57-.94-3.09-1.67-4.52z" fill="#f0d0b4"/></g><g><path d="m35.17 46.83c.51.51.83 1.23.83 2.01 0 1.28-.85 2.4-2.08 2.74l-7.92 2.84-6 2.15-2.3.82c-1.12.4-2.31.61-3.51.61h-1.34c-1.9 0-3.75-.52-5.36-1.49l4.51-4.51 7.44-2.12v-.01l6.56-1.87.55-1.66c.28-.84.95-1.51 1.79-1.79 1.02-.34 2.14-.07 2.9.69l.76.76h1.16c.78 0 1.5.32 2.01.83z" fill="#f0d0b4"/></g><g><path d="m16 34v8.46c-1.6-2.16-3.62-4.03-6-5.46v-3-5l-1.41-1.41c-.38-.38-.59-.89-.59-1.42v-.17c0-.55.22-1.05.59-1.41.36-.37.86-.59 1.41-.59v-2c0-.83.34-1.58.88-2.12s1.29-.88 2.12-.88h5 .22c1.13 0 2.16.63 2.68 1.64.88 1.72 2.1 4.45 2.1 6.36l-3 1v2.59c0 .9-.36 1.77-1 2.41s-1.51 1-2.41 1z" fill="#f0d0b4"/></g></g><g><path d="m60.78 27.116c.139-.346.22-.721.22-1.116v-22c0-1.654-1.346-3-3-3h-24c-1.654 0-3 1.346-3 3v22c0 .395.081.77.22 1.116-1.275.345-2.22 1.501-2.22 2.884v5h-2v4h-2v3.245l-6.75 1.929c-.383-.685-.796-1.352-1.25-1.991v-7.222c1.021-.095 1.973-.518 2.708-1.253.833-.834 1.292-1.943 1.292-3.122v-1.865l3-1v-.721c0-2.068-1.204-4.85-2.213-6.819-.099-.193-.215-.372-.34-.543 2.073-.789 3.553-2.791 3.553-5.138 0-3.033-2.467-5.5-5.5-5.5h-5.139c-7.367 0-13.361 5.994-13.361 13.361 0 5.094 2.83 9.673 7.385 11.951l.615.307v1.688l-.598.224c-4.36 1.636-7.305 5.825-7.394 10.469h-.008v16h20v-5.729l4-1.433v7.162h13c1.654 0 3-1.346 3-3v-15h2.184c-.112.314-.184.648-.184 1v12c0 1.654 1.346 3 3 3h12c1.654 0 3-1.346 3-3v-12c0-.395-.081-.77-.22-1.116 1.275-.346 2.22-1.501 2.22-2.884v-12c0-1.383-.945-2.539-2.22-2.884zm-17.78-24.116h6v4h-6zm-10 1c0-.551.449-1 1-1h7v6h10v-6h7c.551 0 1 .449 1 1v22c0 .551-.449 1-1 1h-10-4-10c-.551 0-1-.449-1-1zm20 25h2v2h-2zm-16 0h2v2h-2zm-8 8h9c.551 0 1 .448 1 1s-.449 1-1 1h-9zm-16.476 15.89 14.258-4.074.72-2.158c.181-.544.613-.976 1.157-1.157.66-.219 1.377-.051 1.871.442l1.056 1.057h1.571c1.016 0 1.843.827 1.843 1.844 0 .823-.554 1.553-1.414 1.796l-16.222 5.81c-1.02.364-2.087.55-3.172.55h-1.342c-1.274 0-2.522-.268-3.678-.759zm12.476-8.564v2.92l-4.885 1.395c-.264-.904-.577-1.789-.955-2.646zm-3.056-18.028-2.944.982v3.307c0 .645-.251 1.251-.708 1.708-.455.456-1.061.707-1.706.707l-3.586-.002v2l2 .001v4.767c-1.192-1.252-2.531-2.362-4-3.299v-7.883l-1.707-1.707c-.189-.189-.293-.441-.293-.708v-.171c0-.551.449-1 1-1h1v-3c0-1.103.897-2 2-2h5 .223c.755 0 1.438.419 1.784 1.093 1.075 2.097 1.745 3.907 1.937 5.205zm-18.944-3.937c0-6.264 5.097-11.361 11.361-11.361h5.139c1.93 0 3.5 1.57 3.5 3.5s-1.57 3.5-3.5 3.5h-1.277-.223-5c-2.206 0-4 1.794-4 4v1.171c-1.164.413-2 1.525-2 2.829v.171c0 .801.312 1.555.879 2.122l1.121 1.121v2.943c-3.703-1.984-6-5.775-6-9.996zm6.105 16.043.766-.288c4.016 2.544 6.992 6.517 8.324 11.074l-5.549 1.585-.394-1.181c-.925-2.774-3.172-4.855-6.01-5.564l-.485 1.94c2.171.543 3.89 2.135 4.598 4.258l.501 1.503-3.498 3.498c-.216-.155-.427-.319-.63-.493l-.442-.379c-2.088-1.791-3.286-4.394-3.286-7.144 0-3.9 2.453-7.44 6.105-8.809zm9.895 22.596h-16v-7.362c.559.818 1.215 1.577 1.984 2.236l.442.379c2.066 1.771 4.702 2.747 7.424 2.747h1.342c1.315 0 2.609-.225 3.847-.668l.961-.344zm19 0h-11v-5.879l7.193-2.577c1.653-.463 2.807-1.984 2.807-3.7 0-2.119-1.724-3.844-3.843-3.844h-.743l-.471-.471c-1.032-1.033-2.533-1.388-3.917-.926-.375.125-.712.325-1.026.554v-3.157h11c.352 0 .686-.072 1-.184v19.184c0 .552-.449 1-1 1zm3-23c0-1.654-1.346-3-3-3h-7v-5c0-.551.449-1 1-1h2 1v4h6v-4h3c.551 0 1 .449 1 1v12c0 .552-.449 1-1 1h-3zm18 20c0 .552-.449 1-1 1h-12c-.551 0-1-.448-1-1v-12c0-.552.449-1 1-1h2 1v4h6v-4h3c.551 0 1 .448 1 1zm-8-13h2v2h-2zm10-3c0 .552-.449 1-1 1h-2-10c-.551 0-1-.448-1-1v-12c0-.551.449-1 1-1h3v4h6v-4h1 2c.551 0 1 .449 1 1z"/><path d="m51 23h2v2h-2z"/><path d="m47 23h2v2h-2z"/><path d="m55 23h2v2h-2z"/><path d="m47 19h10v2h-10z"/></g></g></svg>