<svg id="Capa_1" enable-background="new 0 0 512.001 512.001" height="512" viewBox="0 0 512.001 512.001" width="512" xmlns="http://www.w3.org/2000/svg"><g><path d="m465.99 55.651v111.109h-91.786v-49.186h-69.8v-61.923z" fill="#f07281"/><path d="m354.077 62.804v-7.153h-49.673v61.922h69.801v49.186h29.804v-54.024c0-13.788-11.177-24.966-24.966-24.966-13.789.001-24.966-11.177-24.966-24.965z" fill="#eb5569"/><path d="m85.052 119.233h-62.699c-8.23 0-14.902-6.672-14.902-14.902 0-8.23 6.672-14.902 14.902-14.902h62.699c8.187 0 14.84 6.604 14.901 14.791.062 8.273-6.628 15.013-14.901 15.013z" fill="#f07281"/><path d="m447.735 345.579h-267.27l-47.481-178.823h351.682c13.046 0 22.552 12.359 19.204 24.968l-36.93 139.085c-2.313 8.708-10.195 14.77-19.205 14.77z" fill="#8ac9fe"/><path d="m503.871 191.726-1.282 4.838h-261.314c-19.569 0-33.828 18.539-28.806 37.453l29.625 111.566h-61.624l-47.488-178.823h351.685c13.044 0 22.552 12.359 19.204 24.966z" fill="#60b7ff"/><path d="m249.511 399.389c-24.69 0-44.706 20.015-44.706 44.706 0 24.69 20.015 44.706 44.706 44.706 24.69 0 44.706-20.015 44.706-44.706-.001-24.691-20.016-44.706-44.706-44.706zm0 59.607c-8.217 0-14.902-6.685-14.902-14.902s6.685-14.902 14.902-14.902 14.902 6.685 14.902 14.902-6.685 14.902-14.902 14.902z" fill="#aa9ea9"/><path d="m389.107 399.389c-24.69 0-44.706 20.015-44.706 44.706 0 24.69 20.015 44.706 44.706 44.706 24.69 0 44.706-20.015 44.706-44.706s-20.015-44.706-44.706-44.706zm0 59.607c-8.217 0-14.902-6.685-14.902-14.902s6.685-14.902 14.902-14.902 14.902 6.685 14.902 14.902-6.685 14.902-14.902 14.902z" fill="#aa9ea9"/><path d="m180.465 117.577h193.74v49.181h-193.74z" fill="#fee97d"/><path d="m180.469 117.574h69.542v49.186h-69.542z" fill="#fee45a"/><g><path d="m506.313 169.952c-5.221-6.788-13.127-10.682-21.693-10.682h-11.17v-38.569c0-4.143-3.358-7.5-7.5-7.5s-7.5 3.357-7.5 7.5v38.569h-76.765v-41.667c0-2.848-1.587-5.325-3.925-6.595-1.064-.579-2.283-.908-3.58-.908h-62.28v-46.909h38.708v14.188c0 4.143 3.358 7.5 7.5 7.5s7.5-3.357 7.5-7.5v-14.188h39.133v14.188c0 4.143 3.358 7.5 7.5 7.5s7.5-3.357 7.5-7.5v-14.188h38.709v24.829c0 4.143 3.358 7.5 7.5 7.5s7.5-3.357 7.5-7.5v-32.329c0-4.143-3.358-7.5-7.5-7.5h-46.28c-1.1-18.075-16.148-32.446-34.496-32.446s-33.395 14.371-34.495 32.446h-46.279c-4.142 0-7.5 3.357-7.5 7.5v27.07c-5.569-3.84-12.31-6.095-19.571-6.095-18.681 0-33.938 14.899-34.538 33.437h-62.31c-4.142 0-7.5 3.357-7.5 7.5v41.667h-34.157l-10.117-39.365c-2.966-11.543-11.551-19.89-22.271-22.307-2.884-9.049-11.387-15.637-21.35-15.637h-62.687c-12.351 0-22.399 10.047-22.399 22.399 0 12.351 10.048 22.398 22.399 22.398h62.687c6.015 0 11.66-2.351 15.897-6.619 2.06-2.075 3.654-4.484 4.754-7.099 4.077 1.785 7.136 5.514 8.442 10.598l42.752 162.457c1.063 4.003 5.17 6.387 9.173 5.324 4.004-1.063 6.387-5.17 5.325-9.174l-28.668-107.975h37.623c.033 0 .064.005.097.005h193.583c.039.001.077.006.116.006h91.77c.072 0 .141-.009.212-.011h18.458c3.871 0 7.444 1.759 9.803 4.826 2.36 3.068 3.143 6.976 2.148 10.72l-36.92 139.052c-1.435 5.412-6.35 9.192-11.951 9.192h-261.451l-6.14-23.124c-1.063-4.003-5.171-6.384-9.174-5.324-4.003 1.063-6.387 5.17-5.324 9.174l15.893 60.24c3.925 14.964 16.635 25.802 31.712 27.575-9.794 9.494-15.9 22.773-15.9 37.458 0 28.781 23.416 52.197 52.197 52.197s52.197-23.416 52.197-52.197c0-14.55-5.99-27.722-15.626-37.197h66.428c-9.636 9.475-15.626 22.648-15.626 37.197 0 28.781 23.416 52.197 52.197 52.197s52.197-23.416 52.197-52.197c0-14.55-5.99-27.722-15.626-37.197h18.91c4.142 0 7.5-3.357 7.5-7.5s-3.358-7.5-7.5-7.5h-226.982c-10.129 0-18.999-6.843-21.569-16.641l-5.812-22.161h257.499c12.396 0 23.272-8.367 26.449-20.345l36.919-139.049c2.2-8.281.467-16.924-4.755-23.714zm-121.139-139.207c10.072 0 18.386 7.651 19.447 17.446h-38.893c1.06-9.795 9.374-17.446 19.446-17.446zm-300.088 81.013h-62.687c-4.08 0-7.399-3.319-7.399-7.398 0-4.08 3.319-7.399 7.399-7.399h62.687c4.049 0 7.369 3.295 7.398 7.344.015 1.987-.748 3.857-2.147 5.268-1.399 1.409-3.264 2.185-5.251 2.185zm192.244-20.091c10.408 0 18.919 8.174 19.509 18.437h-39.019c.59-10.263 9.102-18.437 19.51-18.437zm-89.349 33.436h54.782v13.196c0 4.143 3.358 7.5 7.5 7.5s7.5-3.357 7.5-7.5v-13.196h39.133v13.196c0 4.143 3.358 7.5 7.5 7.5s7.5-3.357 7.5-7.5v-13.196h54.784v34.167h-178.699zm238.3 318.956c0 20.511-16.687 37.197-37.197 37.197s-37.197-16.687-37.197-37.197 16.687-37.197 37.197-37.197 37.197 16.686 37.197 37.197zm-139.571 0c0 20.511-16.687 37.197-37.197 37.197s-37.197-16.687-37.197-37.197 16.687-37.197 37.197-37.197 37.197 16.686 37.197 37.197z"/><path d="m214.859 308.365h213.743c4.142 0 7.5-3.357 7.5-7.5s-3.358-7.5-7.5-7.5h-213.743c-4.142 0-7.5 3.357-7.5 7.5s3.358 7.5 7.5 7.5z"/><path d="m459.838 211.47c0-4.143-3.358-7.5-7.5-7.5h-261.215c-4.142 0-7.5 3.357-7.5 7.5s3.358 7.5 7.5 7.5h261.215c4.142 0 7.5-3.357 7.5-7.5z"/><path d="m249.513 466.459c12.351 0 22.399-10.048 22.399-22.399s-10.048-22.399-22.399-22.399-22.399 10.048-22.399 22.399 10.049 22.399 22.399 22.399zm0-29.799c4.08 0 7.399 3.319 7.399 7.399s-3.319 7.399-7.399 7.399-7.399-3.319-7.399-7.399 3.32-7.399 7.399-7.399z"/><path d="m389.083 466.459c12.351 0 22.399-10.048 22.399-22.399s-10.048-22.399-22.399-22.399-22.399 10.048-22.399 22.399 10.049 22.399 22.399 22.399zm0-29.799c4.08 0 7.399 3.319 7.399 7.399s-3.319 7.399-7.399 7.399-7.399-3.319-7.399-7.399 3.32-7.399 7.399-7.399z"/><path d="m303.68 256.17c0-4.143-3.358-7.5-7.5-7.5h-93.19c-4.142 0-7.5 3.357-7.5 7.5s3.358 7.5 7.5 7.5h93.19c4.142 0 7.5-3.357 7.5-7.5z"/><path d="m447.97 256.17c0-4.143-3.358-7.5-7.5-7.5h-111.6c-4.142 0-7.5 3.357-7.5 7.5s3.358 7.5 7.5 7.5h111.6c4.142 0 7.5-3.357 7.5-7.5z"/></g></g></svg>