<svg height="512pt" viewBox="-32 0 512 512" width="512pt" xmlns="http://www.w3.org/2000/svg"><path d="m437.074219 512h-372.554688v-501.59375c0-5.746094 4.660157-10.40625 10.40625-10.40625h362.148438c5.746093 0 10.40625 4.660156 10.40625 10.40625v491.1875c0 5.746094-4.660157 10.40625-10.40625 10.40625zm0 0" fill="#ddf5ff"/><path d="m420.421875 0v201.761719c0 8.351562-9.40625 13.382812-16.257813 8.601562-15.167968-10.585937-33.605468-16.800781-53.464843-16.800781-51.644531 0-93.660157 42.015625-93.660157 93.660156 0 .648438.007813 1.292969.019532 1.941406.121094 5.800782-4.59375 10.546876-10.398438 10.546876h-182.140625v212.289062h295.546875v-122.609375c0-4.96875 3.507813-9.261719 8.386719-10.203125 13-2.507812 25.050781-7.710938 35.546875-15.007812 6.9375-4.820313 16.421875.003906 16.421875 8.453124v139.367188h16.648437c5.75 0 10.40625-4.660156 10.40625-10.40625v-491.1875c.003907-5.746094-4.65625-10.40625-10.402343-10.40625zm0 0" fill="#c1e9f4"/><path d="m256 43.707031h-106.144531c-11.496094 0-20.816407 9.316407-20.816407 20.8125v91.578125c0 11.496094 9.320313 20.8125 20.816407 20.8125h212.289062c11.496094 0 20.816407-9.316406 20.816407-20.8125v-91.578125c0-11.496093-9.320313-20.8125-20.816407-20.8125zm0 0" fill="#ffda88"/><path d="m362.144531 43.707031h-19.769531c11.492188 0 20.8125 9.316407 20.8125 20.8125v91.578125c0 11.496094-9.320312 20.8125-20.8125 20.8125h19.769531c11.496094 0 20.816407-9.316406 20.816407-20.8125v-91.578125c0-11.492187-9.320313-20.8125-20.816407-20.8125zm0 0" fill="#ffcd69"/><path d="m10.40625 320.519531c-5.746094 0-10.40625 4.660157-10.40625 10.40625v170.667969c0 5.746094 4.660156 10.402344 10.40625 10.402344h318.441406c5.746094 0 10.40625-4.65625 10.40625-10.402344v-181.074219zm0 0" fill="#abde97"/><path d="m321.5625 320.519531v191.480469h7.285156c5.746094 0 10.40625-4.660156 10.40625-10.40625v-181.074219zm0 0" fill="#82cd64"/><path d="m169.625 479.738281h-101.972656c-4.464844 0-8.511719-2.816406-9.855469-7.070312-2.484375-7.863281-8-13.875-16.089844-16.441407-4.359375-1.382812-7.363281-5.371093-7.363281-9.945312v-59.523438c0-4.398437 2.839844-8.203124 6.972656-9.710937 7.824219-2.855469 13.800782-8.949219 16.4375-16.449219 1.441406-4.101562 5.402344-6.777344 9.75-6.777344h204.050782c4.453124 0 8.535156 2.742188 9.960937 6.957032 2.660156 7.851562 8.589844 13.78125 16.4375 16.4375 4.21875 1.429687 6.957031 5.511718 6.957031 9.960937v59.113281c0 4.484376-2.835937 8.566407-7.125 9.875-7.96875 2.433594-13.859375 8.164063-16.394531 16.277344-1.335937 4.289063-5.171875 7.300782-9.664063 7.300782h-102.101562zm0 0" fill="#6dc54a"/><path d="m289.582031 389.261719c.097657.042969.195313.085937.292969.125.746094.316406 1.242188 1.035156 1.242188 1.84375v51.097656c0 .8125-.496094 1.527344-1.242188 1.84375-9.222656 3.914063-16.621094 11.3125-20.53125 20.535156-.320312.746094-1.035156 1.242188-1.84375 1.242188h-212.867188c1.273438 1.945312 2.300782 4.089843 3.058594 6.402343 1.429688 4.351563 5.363282 7.390626 9.945313 7.390626h204.089843c4.492188 0 8.328126-3.015626 9.664063-7.300782 2.535156-8.113281 8.429687-13.84375 16.394531-16.277344 4.285156-1.308593 7.125-5.390624 7.125-9.875v-59.113281c0-4.449219-2.738281-8.53125-6.957031-9.960937-7.847656-2.65625-13.777344-8.585938-16.4375-16.4375-1.425781-4.214844-5.507813-6.957032-9.960937-6.957032h-2.710938v3.175782c0 13.886718 8 26.738281 20.738281 32.265625zm0 0" fill="#5db33a"/><path d="m423.546875 287.21875c0 40.234375-32.617187 72.847656-72.847656 72.847656s-72.847657-32.613281-72.847657-72.847656c0-40.230469 32.617188-72.84375 72.847657-72.84375s72.847656 32.613281 72.847656 72.84375zm0 0" fill="#e5646e"/><path d="m394.988281 229.402344c9.417969 12.273437 15.027344 27.621094 15.027344 44.289062 0 40.230469-32.613281 72.847656-72.84375 72.847656-16.667969 0-32.015625-5.609374-44.289063-15.027343 13.3125 17.355469 34.253907 28.554687 57.816407 28.554687 40.230469 0 72.847656-32.613281 72.847656-72.847656 0-23.5625-11.203125-44.503906-28.558594-57.816406zm0 0" fill="#e04955"/><path d="m202.925781 68.164062h-41.625c-4.308593 0-7.804687 3.492188-7.804687 7.804688 0 4.308594 3.492187 7.804688 7.804687 7.804688h13.007813v60.878906c0 4.308594 3.496094 7.804687 7.804687 7.804687 4.3125 0 7.804688-3.496093 7.804688-7.804687v-60.878906h13.007812c4.3125 0 7.804688-3.496094 7.804688-7.804688 0-4.3125-3.492188-7.804688-7.804688-7.804688zm0 0" fill="#495959"/><path d="m266.40625 68.164062h-20.8125c-10.042969 0-18.210938 8.167969-18.210938 18.210938v58.273438c0 4.3125 3.496094 7.804687 7.804688 7.804687s7.804688-3.492187 7.804688-7.804687v-26.535157h26.015624v26.535157c0 4.3125 3.496094 7.804687 7.804688 7.804687 4.3125 0 7.804688-3.492187 7.804688-7.804687v-58.273438c0-10.042969-8.167969-18.210938-18.210938-18.210938zm-23.414062 34.339844v-16.128906c0-1.433594 1.167968-2.601562 2.601562-2.601562h20.8125c1.433594 0 2.601562 1.164062 2.601562 2.601562v16.128906zm0 0" fill="#495959"/><path d="m339.011719 110.308594 18.363281-30.296875c2.234375-3.683594 1.054688-8.484375-2.632812-10.71875-3.683594-2.234375-8.484376-1.054688-10.71875 2.628906l-14.136719 23.328125-14.140625-23.328125c-2.230469-3.683594-7.03125-4.863281-10.71875-2.628906-3.683594 2.234375-4.863282 7.03125-2.628906 10.71875l18.359374 30.296875-18.359374 30.296875c-2.234376 3.683593-1.058594 8.484375 2.628906 10.71875 1.265625.765625 2.660156 1.128906 4.039062 1.128906 2.636719 0 5.214844-1.335937 6.679688-3.757813l14.140625-23.328124 14.136719 23.328124c1.46875 2.421876 4.042968 3.757813 6.683593 3.757813 1.378907 0 2.773438-.363281 4.035157-1.128906 3.6875-2.234375 4.867187-7.035157 2.632812-10.71875zm0 0" fill="#495959"/><path d="m213.257812 408.898438h-5.394531c-3.625-17.789063-19.390625-31.21875-38.238281-31.21875-18.84375 0-34.613281 13.429687-38.238281 31.21875h-5.527344c-4.308594 0-7.804687 3.496093-7.804687 7.804687 0 4.3125 3.496093 7.804687 7.804687 7.804687h5.527344c3.625 17.792969 19.394531 31.222657 38.238281 31.222657 18.847656 0 34.613281-13.429688 38.238281-31.222657h5.394531c4.308594 0 7.804688-3.492187 7.804688-7.804687 0-4.308594-3.496094-7.804687-7.804688-7.804687zm-43.632812 31.21875c-12.910156 0-23.414062-10.503907-23.414062-23.414063s10.503906-23.414063 23.414062-23.414063 23.414062 10.503907 23.414062 23.414063-10.503906 23.414063-23.414062 23.414063zm0 0" fill="#5db33a"/><path d="m266.160156 408.898438h-26.199218c-4.3125 0-7.808594 3.496093-7.808594 7.804687 0 4.3125 3.496094 7.804687 7.808594 7.804687h26.199218c4.3125 0 7.808594-3.492187 7.808594-7.804687 0-4.308594-3.496094-7.804687-7.808594-7.804687zm0 0" fill="#5db33a"/><path d="m99.292969 408.898438h-26.203125c-4.308594 0-7.804688 3.496093-7.804688 7.804687 0 4.3125 3.496094 7.804687 7.804688 7.804687h26.203125c4.308593 0 7.804687-3.492187 7.804687-7.804687 0-4.308594-3.492187-7.804687-7.804687-7.804687zm0 0" fill="#5db33a"/><g fill="#495959"><path d="m345.570312 266.203125v-7.546875c0-9.058594-7.371093-16.425781-16.425781-16.425781-9.058593 0-16.429687 7.367187-16.429687 16.425781v7.546875c0 9.058594 7.371094 16.425781 16.429687 16.425781 9.054688 0 16.425781-7.367187 16.425781-16.425781zm0 0"/><path d="m372.257812 291.808594c-9.058593 0-16.429687 7.371094-16.429687 16.425781v7.546875c0 9.058594 7.371094 16.425781 16.429687 16.425781 9.054688 0 16.425782-7.367187 16.425782-16.425781v-7.546875c0-9.054687-7.371094-16.425781-16.425782-16.425781zm0 0"/><path d="m373.710938 243.113281c-3.824219-1.992187-8.535157-.511719-10.53125 3.3125l-38.800782 74.367188c-1.992187 3.820312-.511718 8.535156 3.308594 10.53125 1.152344.601562 2.386719.886719 3.605469.886719 2.8125 0 5.53125-1.527344 6.925781-4.195313l38.800781-74.371094c1.992188-3.820312.511719-8.535156-3.308593-10.53125zm0 0"/><path d="m262.242188 226.339844h-133.203126c-4.308593 0-7.804687-3.492188-7.804687-7.804688 0-4.308594 3.496094-7.804687 7.804687-7.804687h133.203126c4.3125 0 7.808593 3.496093 7.808593 7.804687 0 4.3125-3.496093 7.804688-7.808593 7.804688zm0 0"/><path d="m220.617188 296.066406h-91.578126c-4.308593 0-7.804687-3.496094-7.804687-7.804687 0-4.3125 3.496094-7.808594 7.804687-7.808594h91.578126c4.3125 0 7.804687 3.496094 7.804687 7.808594 0 4.308593-3.492187 7.804687-7.804687 7.804687zm0 0"/><path d="m220.617188 261.203125h-91.578126c-4.308593 0-7.804687-3.492187-7.804687-7.804687 0-4.308594 3.496094-7.804688 7.804687-7.804688h91.578126c4.3125 0 7.804687 3.492188 7.804687 7.804688s-3.492187 7.804687-7.804687 7.804687zm0 0"/></g></svg>